<svg xmlns="http://www.w3.org/2000/svg" version="1.1" xmlns:xlink="http://www.w3.org/1999/xlink" xmlns:svgjs="http://svgjs.dev/svgjs" width="1000" height="1000"><style>
    #light-icon {
      display: inline;
    }
    #dark-icon {
      display: none;
    }

    @media (prefers-color-scheme: dark) {
      #light-icon {
        display: none;
      }
      #dark-icon {
        display: inline;
      }
    }
  </style><g id="light-icon"><svg xmlns="http://www.w3.org/2000/svg" version="1.1" xmlns:xlink="http://www.w3.org/1999/xlink" xmlns:svgjs="http://svgjs.dev/svgjs" width="1000" height="1000"><g clip-path="url(#SvgjsClipPath1239)"><rect width="1000" height="1000" fill="#ffffff"></rect><g transform="matrix(25,0,0,25,100,100)"><svg xmlns="http://www.w3.org/2000/svg" version="1.1" xmlns:xlink="http://www.w3.org/1999/xlink" xmlns:svgjs="http://svgjs.dev/svgjs" width="32" height="32"><svg version="1.1" xmlns="http://www.w3.org/2000/svg" width="32" height="32" viewBox="0 0 32 32">
<path d="M6 0v32h24v-32h-24zM18 8.010c2.203 0 3.99 1.786 3.99 3.99s-1.786 3.99-3.99 3.99-3.99-1.786-3.99-3.99 1.786-3.99 3.99-3.99v0zM24 24h-12v-2c0-2.209 1.791-4 4-4v0h4c2.209 0 4 1.791 4 4v2z"></path>
<path d="M2 2h3v6h-3v-6z"></path>
<path d="M2 10h3v6h-3v-6z"></path>
<path d="M2 18h3v6h-3v-6z"></path>
<path d="M2 26h3v6h-3v-6z"></path>
</svg></svg></g></g><defs><clipPath id="SvgjsClipPath1239"><rect width="1000" height="1000" x="0" y="0" rx="0" ry="0"></rect></clipPath></defs></svg></g><g id="dark-icon"><svg xmlns="http://www.w3.org/2000/svg" version="1.1" xmlns:xlink="http://www.w3.org/1999/xlink" xmlns:svgjs="http://svgjs.dev/svgjs" width="1000" height="1000"><g><g transform="matrix(31.25,0,0,31.25,0,0)" style="filter: invert(100%)"><svg xmlns="http://www.w3.org/2000/svg" version="1.1" xmlns:xlink="http://www.w3.org/1999/xlink" xmlns:svgjs="http://svgjs.dev/svgjs" width="32" height="32"><svg version="1.1" xmlns="http://www.w3.org/2000/svg" width="32" height="32" viewBox="0 0 32 32">
<path d="M6 0v32h24v-32h-24zM18 8.010c2.203 0 3.99 1.786 3.99 3.99s-1.786 3.99-3.99 3.99-3.99-1.786-3.99-3.99 1.786-3.99 3.99-3.99v0zM24 24h-12v-2c0-2.209 1.791-4 4-4v0h4c2.209 0 4 1.791 4 4v2z"></path>
<path d="M2 2h3v6h-3v-6z"></path>
<path d="M2 10h3v6h-3v-6z"></path>
<path d="M2 18h3v6h-3v-6z"></path>
<path d="M2 26h3v6h-3v-6z"></path>
</svg></svg></g></g></svg></g></svg>